<?xml version="1.0" encoding="UTF-8"?>
<svg id="Layer_1" xmlns="http://www.w3.org/2000/svg" version="1.1" viewBox="0 0 16 16">
  <!-- Generator: Adobe Illustrator 29.6.1, SVG Export Plug-In . SVG Version: 2.1.1 Build 9)  -->
  <defs>
    <style>
      .st0 {
        fill: #8da5f3;
      }
    </style>
  </defs>
  <path class="st0" d="M5,1C2.79,1,1,2.79,1,5v3h7V1h-3ZM11,15c2.21,0,4-1.79,4-4v-3h-7v7h3ZM.99,11c0,2.21,1.79,4,4,4h3s0-7,0-7H.99s0,3,0,3ZM15.5,4.37c0-2.21-1.79-4-4-4h-3v7s7,0,7,0v-3ZM3,7c0-.55.45-1,1-1s1,.45,1,1v2c0,.55-.45,1-1,1s-1-.45-1-1v-2ZM13,8v1c0,.55-.45,1-1,1s-1-.45-1-1v-1h2ZM10.83,12.83c-1.56,1.56-4.09,1.56-5.66,0-.38-.4-.37-1.03.02-1.41.39-.37,1-.37,1.39,0,.78.78,2.05.78,2.83,0,.4-.38,1.03-.37,1.41.02.37.39.37,1,0,1.39h.01Z"/>
</svg>